<?xml version="1.0" standalone="no"?>
<!DOCTYPE svg PUBLIC "-//W3C//DTD SVG 20010904//EN"
 "http://www.w3.org/TR/2001/REC-SVG-20010904/DTD/svg10.dtd">
<svg version="1.0" xmlns="http://www.w3.org/2000/svg"
 width="300.000000pt" height="300.000000pt" viewBox="0 0 500.000000 500.000000"
 preserveAspectRatio="xMidYMid meet">

<g transform="translate(0.000000,500.000000) scale(0.100000,-0.100000)"
fill="#000000 " stroke="blue" style="stroke-width: 5px">
<path d="M1460 3535 l-1035 -1035 1030 -1030 c566 -566 1037 -1030 1045 -1030
8 0 478 464 1045 1030 l1030 1030 -1035 1035 c-569 569 -1037 1035 -1040 1035
-3 0 -471 -466 -1040 -1035z m1078 889 c34 -23 27 -83 -10 -104 -25 -13 -31
-13 -55 0 -38 21 -45 81 -11 104 12 9 29 16 38 16 9 0 26 -7 38 -16z m-1023
-1364 c0 -20 -5 -26 -30 -28 l-30 -3 3 -103 c3 -85 0 -106 -13 -120 -12 -12
-21 -13 -36 -6 -17 10 -19 22 -19 120 l0 110 -30 0 c-35 0 -49 22 -30 45 10
12 32 15 99 13 84 -3 86 -3 86 -28z m863 18 c8 -8 12 -54 12 -140 0 -116 -2
-128 -19 -138 -15 -7 -23 -6 -35 6 -13 12 -16 39 -16 130 0 64 5 124 10 135
12 22 30 25 48 7z m318 4 c6 -4 20 -31 31 -61 21 -58 24 -58 43 4 16 52 27 65
55 65 54 0 55 -2 55 -150 0 -113 -3 -139 -15 -144 -38 -14 -45 3 -46 108 l-1
101 -21 -62 c-36 -103 -62 -107 -93 -15 l-19 57 -3 -70 c-1 -38 -4 -80 -7 -91
-6 -29 -31 -37 -50 -18 -12 12 -15 41 -15 130 0 64 5 124 10 135 11 19 54 26
76 11z m514 -11 c5 -11 10 -39 10 -62 l0 -43 29 28 c49 47 87 10 41 -39 l-20
-22 26 -58 c25 -55 26 -59 9 -71 -24 -18 -39 -9 -60 34 l-18 37 -8 -34 c-7
-36 -24 -52 -45 -44 -19 7 -24 39 -24 151 0 105 9 142 35 142 8 0 19 -9 25
-19z m-1600 -94 c0 -21 0 -21 16 1 17 25 52 29 60 7 8 -20 -12 -43 -39 -47
-19 -3 -23 -11 -28 -67 -6 -67 -21 -86 -51 -70 -26 14 -27 183 -1 197 23 14
43 4 43 -21z m270 -76 c0 -91 -13 -123 -42 -105 -7 4 -35 8 -62 8 -43 1 -52 5
-64 26 -16 31 -11 132 7 154 15 18 76 22 86 6 4 -6 12 -4 21 5 12 11 20 12 35
5 17 -9 19 -22 19 -99z m88 71 c6 -15 13 -36 17 -47 6 -16 10 -12 23 27 17 52
38 67 60 44 14 -13 11 -25 -18 -100 -37 -97 -49 -112 -73 -93 -18 14 -67 139
-67 172 0 43 42 40 58 -3z m284 16 c19 -9 32 -46 26 -75 -2 -14 -14 -19 -56
-21 -44 -3 -52 -6 -52 -23 0 -23 27 -36 43 -20 14 14 54 14 62 0 4 -5 -1 -19
-10 -29 -31 -35 -122 -31 -151 7 -16 21 -18 100 -4 137 15 40 87 53 142 24z
m803 8 c34 25 45 1 45 -101 0 -99 -9 -117 -47 -90 -15 11 -22 11 -37 0 -19
-15 -41 -11 -68 13 -14 12 -18 31 -18 82 0 51 4 70 18 82 26 23 45 27 67 13
17 -10 24 -10 40 1z m458 -14 c10 -9 17 -29 17 -54 l0 -38 -55 0 c-49 0 -55
-2 -55 -20 0 -24 27 -37 43 -21 6 6 24 11 39 11 21 0 28 -5 28 -20 0 -44 -115
-60 -154 -21 -28 29 -30 129 -2 160 30 33 102 35 139 3z m121 2 c5 -12 9 -11
26 6 26 26 52 16 48 -19 -2 -17 -10 -27 -23 -29 -36 -7 -45 -23 -45 -78 0 -41
-4 -55 -17 -62 -37 -19 -43 -4 -43 98 0 70 4 100 13 103 17 6 34 -2 41 -19z
m56 -454 l0 -30 -1190 0 -1190 0 0 30 0 30 1190 0 1190 0 0 -30z m-1140 -280
c17 -17 20 -33 20 -119 l0 -98 103 -46 102 -46 3 -59 3 -59 -68 8 c-37 5 -85
11 -105 14 -34 5 -38 3 -38 -17 0 -15 12 -31 35 -46 32 -20 35 -26 35 -73 l0
-50 -37 6 c-21 4 -53 11 -70 15 -18 5 -48 5 -65 0 -18 -4 -50 -11 -70 -15
l-38 -6 0 50 c0 47 3 53 35 73 23 15 35 31 35 46 0 20 -4 22 -37 17 -21 -3
-69 -9 -106 -14 l-68 -8 3 59 3 59 103 46 102 46 0 98 c0 112 14 139 70 139
17 0 39 -9 50 -20z m-12 -1576 c34 -23 27 -83 -10 -104 -25 -13 -31 -13 -55 0
-38 21 -45 81 -11 104 28 20 48 20 76 0z"/>
<path d="M1770 2900 c0 -44 3 -51 18 -48 13 3 17 13 17 48 0 35 -4 45 -17 48
-15 3 -18 -4 -18 -48z"/>
<path d="M2177 2953 c-16 -15 -6 -33 18 -33 27 0 32 9 13 28 -14 14 -22 15
-31 5z"/>
<path d="M3000 2900 c0 -37 4 -50 15 -50 8 0 17 11 21 25 8 34 -3 75 -21 75
-11 0 -15 -13 -15 -50z"/>
<path d="M3427 2953 c-16 -15 -6 -33 18 -33 28 0 34 24 9 34 -19 7 -19 7 -27
-1z"/>
<path d="M2478 2109 l-3 -110 -102 -46 c-63 -28 -103 -52 -103 -61 0 -11 9
-13 38 -9 20 4 67 9 105 13 l67 7 0 -62 c0 -59 -1 -62 -35 -83 -19 -13 -35
-25 -35 -28 0 -3 41 -5 90 -5 50 0 90 2 90 5 0 3 -16 15 -35 28 -34 21 -35 24
-35 83 l0 62 68 -7 c37 -4 84 -9 105 -13 28 -4 37 -2 37 9 0 9 -40 33 -102 61
l-103 46 -3 110 c-2 102 -4 111 -22 111 -18 0 -20 -9 -22 -111z"/>
</g>
</svg>
